<svg viewBox="0 0 36 36" fill="none" xmlns="http://www.w3.org/2000/svg" xmlns:xlink="http://www.w3.org/1999/xlink" x="0" y="0"><defs><mask id="path-330-inside-32_56_893" fill="white">
<path d="M0,18.0002c0,-9.94 8.059,-18 18,-18c9.941,0 18,8.06 18,18c0,9.94 -8.059,18 -18,18c-9.941,0 -18,-8.06 -18,-18z"/>
</mask><clipPath id="clip88_56_893">
<rect x="0" y="0.0001999999999497959" width="36" height="36" rx="18" fill="white"/>
</clipPath><clipPath id="clip89_56_893">
<rect width="20" height="20" fill="white" transform="translate(8, 8.00019999999995)"/>
</clipPath></defs><g id="Social link_4">
<g clip-path="url(#clip88_56_893)">
<g id="Component 1_29" clip-path="url(#clip89_56_893)">
<g id="284710571">
<path id="Pn8o_iuqT" d="M10.5,18.0002c0,-4.14 3.357,-7.5 7.5,-7.5c4.142,0 7.5,3.36 7.5,7.5c0,4.14 -3.358,7.5 -7.5,7.5c-4.143,0 -7.5,-3.36 -7.5,-7.5z" stroke="black" stroke-width="1.25" stroke-linecap="round" stroke-linejoin="round"/>
<path id="MOT7Ok_Z9" d="M13.547,24.0402c2.263,-3.75 6.324,-6.04 10.703,-6.04c0.421,0 0.839,0.02 1.25,0.06" stroke="black" stroke-width="1.25" stroke-linecap="round" stroke-linejoin="round"/>
<path id="uWno1dECK" d="M22.688,12.1502c-2.372,2.91 -5.931,4.6 -9.688,4.6c-0.791,0 -1.58,-0.07 -2.356,-0.22" stroke="black" stroke-width="1.25" stroke-linecap="round" stroke-linejoin="round"/>
<path id="DGpj3ZHuH" d="M14.713,11.2602c3.825,2.24 6.175,6.34 6.172,10.78c0.001,1.02 -0.123,2.04 -0.369,3.03" stroke="black" stroke-width="1.25" stroke-linecap="round" stroke-linejoin="round"/>
</g>
</g>
<g id="::after_32">
<mask id="path-330-inside-32_56_893" fill="white">
<path d="M282 3580.59C282 3570.65 290.059 3562.59 300 3562.59C309.941 3562.59 318 3570.65 318 3580.59C318 3590.53 309.941 3598.59 300 3598.59C290.059 3598.59 282 3590.53 282 3580.59Z"/>
</mask>
<path d="M0,18.0002M36,18.0002M36,18.0002M0,18.0002M18,0.0002M36,18.0002M18,36.0002M0,18.0002M18,36.0002v-1c-9.389,0 -17,-7.61 -17,-17h-1h-1c0,10.49 8.507,19 19,19zM36,18.0002h-1c0,9.39 -7.611,17 -17,17v1v1c10.493,0 19,-8.51 19,-19zM18,0.0002v1c9.389,0 17,7.61 17,17h1h1c0,-10.49 -8.507,-19 -19,-19zM18,0.0002v-1c-10.493,0 -19,8.51 -19,19h1h1c0,-9.39 7.611,-17 17,-17z" fill="black" fill-opacity="0.1" mask="url(#path-330-inside-32_56_893)"/>
</g>
</g>
</g></svg>