<svg viewBox="0 0 40 40" fill="none" xmlns="http://www.w3.org/2000/svg" xmlns:xlink="http://www.w3.org/1999/xlink" x="0" y="0"><defs><mask id="path-248-inside-22_56_893" fill="white">
<path d="M0,20.0002c0,-11.05 8.954,-20 20,-20c11.046,0 20,8.95 20,20c0,11.05 -8.954,20 -20,20c-11.046,0 -20,-8.95 -20,-20z"/>
</mask><clipPath id="clip58_56_893">
<rect x="0" y="0.0001999999999497959" width="40" height="40" rx="20" fill="white"/>
</clipPath><clipPath id="clip59_56_893">
<rect width="20" height="20" fill="white" transform="translate(10, 10.00019999999995)"/>
</clipPath></defs><g id="div.framer-pl0mdy">
<g clip-path="url(#clip58_56_893)">
<rect x="0" y="0.0001999999999497959" width="40" height="40" rx="20" fill="#F2F1E8"/>
<g id="Component 1_23" clip-path="url(#clip59_56_893)">
<g id="3354701611">
<path id="n9Hba3NDr" d="M27.5,20.0002h-2.5c-0.69,0 -1.25,0.56 -1.25,1.25v3.12c0,0.69 0.56,1.25 1.25,1.25h1.25c0.69,0 1.25,-0.56 1.25,-1.25zM27.5,20.0002c0,-4.14 -3.358,-7.5 -7.5,-7.5c-4.143,0 -7.5,3.36 -7.5,7.5M12.5,20.0002v4.37c0,0.69 0.56,1.25 1.25,1.25h1.25c0.69,0 1.25,-0.56 1.25,-1.25v-3.12c0,-0.69 -0.56,-1.25 -1.25,-1.25z" stroke="black" stroke-width="1.25" stroke-linecap="round" stroke-linejoin="round"/>
</g>
</g>
<g id="::after_22">
<mask id="path-248-inside-22_56_893" fill="white">
<path d="M172 2307.59C172 2296.54 180.954 2287.59 192 2287.59C203.046 2287.59 212 2296.54 212 2307.59C212 2318.64 203.046 2327.59 192 2327.59C180.954 2327.59 172 2318.64 172 2307.59Z"/>
</mask>
<path d="M0,20.0002M40,20.0002M40,20.0002M0,20.0002M20,0.0002M40,20.0002M20,40.0002M0,20.0002M20,40.0002v-1c-10.493,0 -19,-8.51 -19,-19h-1h-1c0,11.6 9.402,21 21,21zM40,20.0002h-1c0,10.49 -8.507,19 -19,19v1v1c11.598,0 21,-9.4 21,-21zM20,0.0002v1c10.493,0 19,8.51 19,19h1h1c0,-11.6 -9.402,-21 -21,-21zM20,0.0002v-1c-11.598,0 -21,9.4 -21,21h1h1c0,-10.49 8.507,-19 19,-19z" fill="black" fill-opacity="0.1" mask="url(#path-248-inside-22_56_893)"/>
</g>
</g>
</g></svg>