<svg width="18" height="18" viewBox="0 0 18 18" fill="none" xmlns="http://www.w3.org/2000/svg">
<path d="M1.125 5.625H7.3125" stroke="white" stroke-width="1.125" stroke-linecap="round" stroke-linejoin="round"/>
<path d="M10.6875 5.625H16.875" stroke="white" stroke-width="1.125" stroke-linecap="round" stroke-linejoin="round"/>
<path d="M7.3125 5.625C7.3125 4.69275 8.06775 3.9375 9 3.9375C9.93225 3.9375 10.6875 4.69275 10.6875 5.625C10.6875 6.55725 9.93225 7.3125 9 7.3125C8.06775 7.3125 7.3125 6.55725 7.3125 5.625Z" stroke="white" stroke-width="1.125" stroke-linecap="round" stroke-linejoin="round"/>
<path d="M1.125 12.375C1.125 11.4427 1.88025 10.6875 2.8125 10.6875C3.74475 10.6875 4.5 11.4427 4.5 12.375C4.5 13.3073 3.74475 14.0625 2.8125 14.0625C1.88025 14.0625 1.125 13.3073 1.125 12.375Z" stroke="white" stroke-width="1.125" stroke-linecap="round" stroke-linejoin="round"/>
<path d="M13.5 12.375C13.5 11.4427 14.2552 10.6875 15.1875 10.6875C16.1198 10.6875 16.875 11.4427 16.875 12.375C16.875 13.3073 16.1198 14.0625 15.1875 14.0625C14.2552 14.0625 13.5 13.3073 13.5 12.375Z" stroke="white" stroke-width="1.125" stroke-linecap="round" stroke-linejoin="round"/>
<path d="M10.6718 5.85376C12.945 6.49351 14.6565 8.36926 15.0863 10.6913" stroke="white" stroke-width="1.125" stroke-linecap="round" stroke-linejoin="round"/>
<path d="M2.91376 10.6913C3.34351 8.36926 5.05501 6.49351 7.32826 5.85376" stroke="white" stroke-width="1.125" stroke-linecap="round" stroke-linejoin="round"/>
</svg>
