<svg width="22" height="22" viewBox="0 0 22 22" fill="none" xmlns="http://www.w3.org/2000/svg">
<path d="M16.5 10.3125C18.1234 10.3116 19.6524 11.0761 20.625 12.375" stroke="black" stroke-width="1.375" stroke-linecap="round" stroke-linejoin="round"/>
<path d="M1.375 12.375C2.34758 11.0761 3.87658 10.3116 5.5 10.3125" stroke="black" stroke-width="1.375" stroke-linecap="round" stroke-linejoin="round"/>
<path d="M7.5625 12.375C7.5625 10.4766 9.10158 8.9375 11 8.9375C12.8984 8.9375 14.4375 10.4766 14.4375 12.375C14.4375 14.2734 12.8984 15.8125 11 15.8125C9.10158 15.8125 7.5625 14.2734 7.5625 12.375Z" stroke="black" stroke-width="1.375" stroke-linecap="round" stroke-linejoin="round"/>
<path d="M6.1875 18.5625C7.19125 16.8584 9.02183 15.8125 11 15.8125C12.9782 15.8125 14.8088 16.8584 15.8125 18.5625" stroke="black" stroke-width="1.375" stroke-linecap="round" stroke-linejoin="round"/>
<path d="M13.8362 6.875C14.1937 5.49175 15.5503 4.61267 16.9593 4.85192C18.3682 5.09117 19.3591 6.369 19.239 7.7935C19.1198 9.21709 17.9291 10.3125 16.5 10.3125" stroke="black" stroke-width="1.375" stroke-linecap="round" stroke-linejoin="round"/>
<path d="M5.50001 10.3125C4.07092 10.3125 2.88017 9.21709 2.76101 7.7935C2.64092 6.369 3.63184 5.09117 5.04076 4.85192C6.44876 4.61267 7.80634 5.49175 8.16384 6.875" stroke="black" stroke-width="1.375" stroke-linecap="round" stroke-linejoin="round"/>
</svg>
