<svg width="20" height="20" viewBox="0 0 20 20" fill="none" xmlns="http://www.w3.org/2000/svg">
<path d="M17.5 10H15C14.31 10 13.75 10.56 13.75 11.25V14.375C13.75 15.065 14.31 15.625 15 15.625H16.25C16.94 15.625 17.5 15.065 17.5 14.375V10ZM17.5 10C17.5 5.8575 14.1425 2.5 10 2.5C5.8575 2.5 2.5 5.8575 2.5 10M2.5 10V14.375C2.5 15.065 3.06 15.625 3.75 15.625H5C5.69 15.625 6.25 15.065 6.25 14.375V11.25C6.25 10.56 5.69 10 5 10H2.5Z" stroke="black" stroke-width="1.25" stroke-linecap="round" stroke-linejoin="round"/>
</svg>
