<svg width="22" height="22" viewBox="0 0 22 22" fill="none" xmlns="http://www.w3.org/2000/svg">
<path d="M0.879089 17.1875C2.27426 15.0425 4.65942 13.7482 7.21876 13.7482C9.77809 13.7482 12.1633 15.0425 13.5584 17.1875" stroke="black" stroke-width="1.375" stroke-linecap="round" stroke-linejoin="round"/>
<path d="M14.7812 13.75C17.3406 13.7482 19.7258 15.0425 21.1209 17.1875" stroke="black" stroke-width="1.375" stroke-linecap="round" stroke-linejoin="round"/>
<path d="M2.75 9.28125C2.75 6.81358 4.75108 4.8125 7.21875 4.8125C9.68642 4.8125 11.6875 6.81358 11.6875 9.28125C11.6875 11.7489 9.68642 13.75 7.21875 13.75C4.75108 13.75 2.75 11.7489 2.75 9.28125Z" stroke="black" stroke-width="1.375" stroke-linecap="round" stroke-linejoin="round"/>
<path d="M13.1221 5.13052C14.7941 4.4641 16.7026 4.86469 17.9639 6.14802C19.2262 7.43227 19.5947 9.34719 18.8998 11.0073C18.205 12.6674 16.5816 13.7481 14.7813 13.7499" stroke="black" stroke-width="1.375" stroke-linecap="round" stroke-linejoin="round"/>
</svg>
