<svg width="28" height="28" viewBox="0 0 28 28" fill="none" xmlns="http://www.w3.org/2000/svg">
<path d="M4 10.754V7.01667L14 2L24 7.01667V18.328L14 13.6067L4 18.328V14.3933L14 9.672L20.6333 12.82V9.18L14 5.83667L4 10.754Z" fill="white"/>
<path d="M14 21.082V17.344L4 22.0653V26L14 21.082Z" fill="white"/>
<path d="M4 10.754V7.01667L14 2L24 7.01667V18.328L14 13.6067L4 18.328V14.3933L14 9.672L20.6333 12.82V9.18L14 5.83667L4 10.754Z" stroke="white" stroke-width="0.666667"/>
<path d="M14 21.082V17.344L4 22.0653V26L14 21.082Z" stroke="white" stroke-width="0.666667"/>
</svg>
