<svg width="16" height="16" viewBox="0 0 16 16" fill="none" xmlns="http://www.w3.org/2000/svg">
<path d="M8 11.818L11.42 13.9213C11.6013 14.0313 11.8313 14.0213 12.0027 13.896C12.174 13.7707 12.2527 13.5547 12.2027 13.348L11.2727 9.424L14.316 6.79867C14.4747 6.65933 14.5353 6.43933 14.4707 6.23867C14.4053 6.03733 14.2273 5.89467 14.0167 5.87533L10.0227 5.55L8.484 1.82533C8.40333 1.62867 8.21267 1.5 8 1.5C7.788 1.5 7.59666 1.62867 7.516 1.82533L5.97733 5.55L1.98333 5.87533C1.77133 5.89333 1.59133 6.03733 1.526 6.23933C1.46066 6.44133 1.52333 6.66333 1.684 6.802L4.72733 9.42667L3.79733 13.348C3.74733 13.5547 3.826 13.7707 3.99733 13.896C4.16866 14.0213 4.39867 14.0313 4.58 13.9213L8 11.818Z" fill="black"/>
<path d="M8 11.818L11.42 13.9213C11.6013 14.0313 11.8313 14.0213 12.0027 13.896C12.174 13.7707 12.2527 13.5547 12.2027 13.348L11.2727 9.424L14.316 6.79867C14.4747 6.65933 14.5353 6.43933 14.4707 6.23867C14.4053 6.03733 14.2273 5.89467 14.0167 5.87533L10.0227 5.55L8.484 1.82533C8.40333 1.62867 8.21266 1.5 8 1.5C7.788 1.5 7.59667 1.62867 7.516 1.82533L5.97733 5.55L1.98333 5.87533C1.77133 5.89333 1.59133 6.03733 1.526 6.23933C1.46066 6.44133 1.52333 6.66333 1.684 6.802L4.72733 9.42667L3.79733 13.348C3.74733 13.5547 3.826 13.7707 3.99733 13.896C4.16866 14.0213 4.39867 14.0313 4.58 13.9213L8 11.818Z" stroke="black" stroke-linecap="round" stroke-linejoin="round"/>
</svg>
