<svg width="20" height="20" viewBox="0 0 20 20" fill="none" xmlns="http://www.w3.org/2000/svg">
<path d="M2.5 10C2.5 5.8575 5.8575 2.5 10 2.5C14.1425 2.5 17.5 5.8575 17.5 10C17.5 14.1425 14.1425 17.5 10 17.5C5.8575 17.5 2.5 14.1425 2.5 10Z" stroke="black" stroke-width="1.25" stroke-linecap="round" stroke-linejoin="round"/>
<path d="M5.54666 16.0367C7.80999 12.2875 11.8708 9.9975 16.25 10C16.6708 10 17.0883 10.0208 17.5 10.0617" stroke="black" stroke-width="1.25" stroke-linecap="round" stroke-linejoin="round"/>
<path d="M14.6875 4.14746C12.3158 7.06246 8.75667 8.75246 5.00001 8.74996C4.20917 8.74996 3.42001 8.67579 2.64334 8.52829" stroke="black" stroke-width="1.25" stroke-linecap="round" stroke-linejoin="round"/>
<path d="M6.71332 3.25684C10.5383 5.50017 12.8875 9.6035 12.885 14.0385C12.8858 15.0593 12.7617 16.0768 12.5158 17.0677" stroke="black" stroke-width="1.25" stroke-linecap="round" stroke-linejoin="round"/>
</svg>
