<svg width="36" height="36" viewBox="0 0 36 36" fill="none" xmlns="http://www.w3.org/2000/svg">
<g clip-path="url(#clip0_1_1445)">
<mask id="mask0_1_1445" style="mask-type:alpha" maskUnits="userSpaceOnUse" x="8" y="8" width="20" height="20">
<g clip-path="url(#clip1_1_1445)">
<path d="M12.1667 17.9998H23.8334M23.8334 17.9998L18 12.1665M23.8334 17.9998L18 23.8332" stroke="black" stroke-width="1.66667" stroke-linecap="round" stroke-linejoin="round"/>
</g>
</mask>
<g mask="url(#mask0_1_1445)">
<rect x="8" y="8" width="20" height="20" fill="black"/>
</g>
<mask id="path-4-inside-1_1_1445" fill="white">
<path d="M0 18C0 8.05888 8.05888 0 18 0C27.9411 0 36 8.05888 36 18C36 27.9411 27.9411 36 18 36C8.05888 36 0 27.9411 0 18Z"/>
</mask>
<path d="M0 18M36 18M36 18M0 18M18 0M36 18M18 36M0 18M18 36V35C8.61116 35 1 27.3888 1 18H0H-1C-1 28.4934 7.50659 37 18 37V36ZM36 18H35C35 27.3888 27.3888 35 18 35V36V37C28.4934 37 37 28.4934 37 18H36ZM18 0V1C27.3888 1 35 8.61116 35 18H36H37C37 7.50659 28.4934 -1 18 -1V0ZM18 0V-1C7.50659 -1 -1 7.50659 -1 18H0H1C1 8.61116 8.61116 1 18 1V0Z" fill="black" fill-opacity="0.1" mask="url(#path-4-inside-1_1_1445)"/>
</g>
<defs>
<clipPath id="clip0_1_1445">
<rect width="36" height="36" rx="18" fill="white"/>
</clipPath>
<clipPath id="clip1_1_1445">
<rect width="20" height="20" fill="white" transform="translate(8 8)"/>
</clipPath>
</defs>
</svg>
