<svg viewBox="0 0 36 36" fill="none" xmlns="http://www.w3.org/2000/svg" xmlns:xlink="http://www.w3.org/1999/xlink" x="0" y="0"><defs><mask id="path-309-inside-29_56_893" fill="white">
<path d="M0,18.0002c0,-9.94 8.059,-18 18,-18c9.941,0 18,8.06 18,18c0,9.94 -8.059,18 -18,18c-9.941,0 -18,-8.06 -18,-18z"/>
</mask><clipPath id="clip82_56_893">
<rect x="0" y="0.0001999999999497959" width="36" height="36" rx="18" fill="white"/>
</clipPath><clipPath id="clip83_56_893">
<rect width="20" height="20" fill="white" transform="translate(8, 8.00019999999995)"/>
</clipPath></defs><g id="Social link">
<g clip-path="url(#clip82_56_893)">
<g id="Component 1_26" clip-path="url(#clip83_56_893)">
<g id="942143898">
<path id="vvJ8FLDVj" d="M14.25,25.5002c-2.071,0 -3.75,-1.68 -3.75,-3.75v-7.5c0,-2.07 1.679,-3.75 3.75,-3.75h7.5c2.071,0 3.75,1.68 3.75,3.75v7.5c0,2.07 -1.679,3.75 -3.75,3.75z" stroke="black" stroke-width="1.25" stroke-linecap="round" stroke-linejoin="round"/>
<path id="Q3v7fjWhv" d="M14.875,18.0002c0,-1.73 1.399,-3.13 3.125,-3.13c1.726,0 3.125,1.4 3.125,3.13c0,1.73 -1.399,3.12 -3.125,3.12c-1.726,0 -3.125,-1.39 -3.125,-3.12z" stroke="black" stroke-width="1.25" stroke-miterlimit="10"/>
<path id="VxeO4Hprj" d="M21.125,13.9402c0,-0.52 0.42,-0.94 0.937,-0.94c0.518,0 0.938,0.42 0.938,0.94c0,0.51 -0.42,0.93 -0.938,0.93c-0.517,0 -0.937,-0.42 -0.937,-0.93z" fill="black"/>
</g>
</g>
<g id="::after_29">
<mask id="path-309-inside-29_56_893" fill="white">
<path d="M144 3580.59C144 3570.65 152.059 3562.59 162 3562.59C171.941 3562.59 180 3570.65 180 3580.59C180 3590.53 171.941 3598.59 162 3598.59C152.059 3598.59 144 3590.53 144 3580.59Z"/>
</mask>
<path d="M0,18.0002M36,18.0002M36,18.0002M0,18.0002M18,0.0002M36,18.0002M18,36.0002M0,18.0002M18,36.0002v-1c-9.389,0 -17,-7.61 -17,-17h-1h-1c0,10.49 8.507,19 19,19zM36,18.0002h-1c0,9.39 -7.611,17 -17,17v1v1c10.493,0 19,-8.51 19,-19zM18,0.0002v1c9.389,0 17,7.61 17,17h1h1c0,-10.49 -8.507,-19 -19,-19zM18,0.0002v-1c-10.493,0 -19,8.51 -19,19h1h1c0,-9.39 7.611,-17 17,-17z" fill="black" fill-opacity="0.1" mask="url(#path-309-inside-29_56_893)"/>
</g>
</g>
</g></svg>